<?xml version="1.0" standalone="no"?>
<!DOCTYPE svg PUBLIC "-//W3C//DTD SVG 20010904//EN"
 "http://www.w3.org/TR/2001/REC-SVG-20010904/DTD/svg10.dtd">
<svg version="1.0" xmlns="http://www.w3.org/2000/svg"
 width="512.000000pt" height="512.000000pt" viewBox="0 0 512.000000 512.000000"
 preserveAspectRatio="xMidYMid meet">

<g transform="translate(0.000000,512.000000) scale(0.100000,-0.100000)"
fill="#000000" stroke="none">
<path d="M2370 5114 c-243 -18 -541 -89 -775 -184 -219 -89 -492 -254 -662
-400 -74 -63 -83 -74 -83 -105 0 -22 8 -41 22 -55 39 -36 68 -26 174 59 210
167 461 310 697 396 303 111 688 163 997 135 140 -12 276 -33 286 -43 4 -3 -3
-18 -14 -34 -31 -44 -97 -181 -126 -263 -65 -178 -90 -372 -75 -565 33 -415
251 -785 600 -1023 114 -77 288 -152 434 -188 94 -22 110 -34 134 -99 71 -188
187 -335 350 -440 151 -98 292 -138 482 -138 l126 1 -18 -87 c-77 -377 -249
-738 -497 -1046 -73 -91 -81 -110 -61 -148 16 -30 28 -37 64 -37 36 1 46 8
106 80 276 331 474 759 549 1186 12 67 11 75 -9 116 -36 75 -71 88 -237 88
-108 -1 -155 4 -209 19 -143 40 -236 94 -334 192 -72 73 -116 141 -166 260
-57 132 -86 156 -246 199 -378 103 -663 341 -816 681 -67 149 -94 267 -100
442 -10 258 35 441 166 672 60 106 67 159 28 215 -35 53 -72 68 -218 90 -131
20 -443 33 -569 24z"/>
<path d="M4035 4744 c-11 -3 -90 -26 -175 -50 -210 -62 -270 -103 -320 -217
-25 -59 -54 -240 -46 -295 14 -100 81 -199 167 -242 22 -12 88 -39 147 -61
184 -70 306 -62 408 25 61 52 89 116 139 317 36 143 45 196 41 237 -10 109
-83 212 -181 258 -50 23 -142 37 -180 28z m132 -172 c31 -17 61 -59 73 -102 8
-31 3 -65 -36 -221 -47 -194 -61 -221 -126 -255 -45 -23 -92 -16 -226 33 -195
71 -225 113 -197 276 31 173 43 185 250 247 168 50 203 53 262 22z"/>
<path d="M2039 4307 c-25 -19 -40 -55 -33 -81 9 -38 117 -136 149 -136 38 0
61 16 73 49 12 34 -2 68 -51 119 -55 57 -104 75 -138 49z"/>
<path d="M634 4238 c-147 -160 -303 -402 -407 -633 -258 -573 -296 -1225 -107
-1820 121 -380 322 -713 605 -1004 411 -422 890 -666 1485 -757 165 -25 519
-25 695 0 157 22 394 81 530 130 149 55 405 185 535 272 112 74 262 191 288
222 20 25 15 79 -10 102 -37 34 -66 26 -163 -51 -370 -292 -761 -462 -1210
-524 -149 -21 -472 -24 -605 -6 -628 85 -1162 377 -1564 855 -389 463 -594
1103 -546 1701 40 510 208 935 529 1344 89 113 98 142 58 179 -35 33 -77 29
-113 -10z"/>
<path d="M4816 4228 c-54 -15 -141 -101 -155 -153 -33 -120 18 -233 126 -282
224 -103 435 171 276 357 -62 72 -158 103 -247 78z m130 -170 c28 -30 23 -86
-10 -114 -30 -27 -53 -30 -90 -13 -47 22 -57 97 -18 132 34 30 90 27 118 -5z"/>
<path d="M2435 3822 c-37 -23 -93 -86 -105 -118 -19 -48 18 -94 75 -94 29 0
117 76 141 122 17 33 6 68 -28 92 -29 21 -46 20 -83 -2z"/>
<path d="M1362 3749 c-206 -40 -349 -247 -313 -451 45 -257 319 -403 555 -295
73 34 159 120 194 194 24 52 27 70 27 163 0 95 -3 111 -29 167 -33 72 -116
157 -187 191 -45 22 -142 43 -184 41 -11 -1 -39 -5 -63 -10z m185 -174 c176
-88 174 -335 -2 -428 -53 -28 -155 -30 -208 -3 -122 60 -170 199 -113 322 25
55 83 109 131 123 61 18 138 12 192 -14z"/>
<path d="M4368 3587 c-139 -59 -197 -115 -217 -208 -14 -64 -4 -109 56 -246
57 -133 102 -184 184 -207 68 -20 146 -8 194 29 35 26 120 121 178 197 76 101
69 226 -16 311 -23 23 -75 64 -115 91 -66 44 -81 49 -140 53 -54 3 -78 -1
-124 -20z m188 -164 c90 -67 104 -83 104 -124 0 -32 -11 -51 -80 -133 -74 -88
-84 -96 -116 -96 -19 0 -43 4 -53 10 -24 13 -111 211 -111 253 0 41 25 66 100
101 74 34 98 33 156 -11z"/>
<path d="M2410 3185 c-183 -59 -223 -301 -68 -412 175 -126 412 27 367 237
-28 132 -172 216 -299 175z m125 -170 c50 -49 15 -135 -55 -135 -41 0 -80 39
-80 80 0 41 39 80 80 80 19 0 40 -9 55 -25z"/>
<path d="M854 2709 c-26 -9 -54 -46 -54 -70 0 -34 99 -215 123 -226 50 -23
107 11 107 64 0 13 -22 68 -50 122 -52 104 -79 128 -126 110z"/>
<path d="M1890 2467 c-34 -17 -53 -58 -41 -89 5 -12 34 -47 65 -77 42 -42 62
-54 85 -54 43 0 71 28 71 72 0 31 -8 45 -57 93 -65 63 -87 73 -123 55z"/>
<path d="M3173 2431 c-56 -27 -106 -59 -112 -70 -26 -48 -6 -99 45 -115 28 -8
217 84 239 117 27 41 2 95 -51 111 -14 4 -54 -10 -121 -43z"/>
<path d="M1548 2069 c-101 -15 -197 -90 -241 -187 -31 -70 -30 -179 4 -252 64
-135 202 -208 343 -180 33 7 74 19 90 27 54 28 113 92 141 154 24 55 27 70 23
143 -5 94 -27 145 -88 206 -71 71 -171 104 -272 89z m140 -176 c51 -38 67 -70
67 -133 0 -66 -18 -99 -75 -137 -68 -47 -176 -19 -219 57 -47 84 -10 192 79
229 37 16 117 7 148 -16z"/>
<path d="M3870 2050 c-30 -30 -24 -72 25 -170 48 -96 79 -126 120 -116 32 8
65 44 65 71 0 27 -75 183 -102 213 -27 28 -80 30 -108 2z"/>
<path d="M2979 1887 c-160 -67 -251 -200 -250 -367 1 -118 36 -204 117 -284
154 -151 399 -150 554 4 156 157 155 395 -2 557 -75 77 -148 107 -268 111 -81
2 -103 -1 -151 -21z m224 -143 c58 -19 120 -81 143 -140 25 -65 15 -159 -22
-215 -86 -127 -265 -146 -373 -38 -71 71 -89 174 -47 265 54 117 177 170 299
128z"/>
<path d="M2035 1142 c-94 -49 -123 -81 -110 -122 9 -29 45 -60 70 -60 27 0
183 75 213 102 28 27 30 80 2 108 -31 31 -76 24 -175 -28z"/>
<path d="M2837 778 c-49 -38 -48 -167 1 -204 22 -17 62 -17 84 0 53 40 48 189
-7 210 -26 10 -60 7 -78 -6z"/>
</g>
</svg>
